<svg xmlns="http://www.w3.org/2000/svg" viewBox="0 0 100 125"><path d="M5 52c-.8 0-1.5-.7-1.5-1.5v-1c0-.8.7-1.5 1.5-1.5s1.5.7 1.5 1.5v1c0 .8-.7 1.5-1.5 1.5zM11 51.5c-.4 0-.8-.2-1.1-.4-.3-.3-.4-.7-.4-1.1 0-.4.2-.8.4-1.1.6-.6 1.6-.6 2.1 0 .3.3.4.7.4 1.1 0 .4-.2.8-.4 1.1-.2.2-.6.4-1 .4zM17 66.5c-.8 0-1.5-.7-1.5-1.5V35c0-.8.7-1.5 1.5-1.5s1.5.7 1.5 1.5v30c0 .8-.7 1.5-1.5 1.5zM29 76.5c-.8 0-1.5-.7-1.5-1.5V25c0-.8.7-1.5 1.5-1.5s1.5.7 1.5 1.5v50c0 .8-.7 1.5-1.5 1.5zM23 81.5c-.8 0-1.5-.7-1.5-1.5V20c0-.8.7-1.5 1.5-1.5s1.5.7 1.5 1.5v60c0 .8-.7 1.5-1.5 1.5zM35 68.5c-.8 0-1.5-.7-1.5-1.5V33c0-.8.7-1.5 1.5-1.5s1.5.7 1.5 1.5v34c0 .8-.7 1.5-1.5 1.5zM41 61c-.8 0-1.5-.7-1.5-1.5v-19c0-.8.7-1.5 1.5-1.5s1.5.7 1.5 1.5v19c0 .8-.7 1.5-1.5 1.5zM47 56c-.8 0-1.5-.7-1.5-1.5v-9c0-.8.7-1.5 1.5-1.5s1.5.7 1.5 1.5v9c0 .8-.7 1.5-1.5 1.5zM53 58.5c-.8 0-1.5-.7-1.5-1.5V43c0-.8.7-1.5 1.5-1.5s1.5.7 1.5 1.5v14c0 .8-.7 1.5-1.5 1.5zM59 54.5c-.8 0-1.5-.7-1.5-1.5v-6c0-.8.7-1.5 1.5-1.5s1.5.7 1.5 1.5v6c0 .8-.7 1.5-1.5 1.5zM65 53c-.8 0-1.5-.7-1.5-1.5v-3c0-.8.7-1.5 1.5-1.5s1.5.7 1.5 1.5v3c0 .8-.7 1.5-1.5 1.5zM71 51.5c-.4 0-.8-.2-1.1-.4-.1-.1-.2-.3-.3-.5-.1-.2-.1-.4-.1-.6v-.3c0-.1 0-.2.1-.3 0-.1.1-.2.1-.3.1-.1.1-.2.2-.2l.2-.2c.1-.1.2-.1.3-.1.1 0 .2-.1.3-.1h.6c.1 0 .2 0 .3.1.1 0 .2.1.3.1.1.1.2.1.2.2l.2.2c0 .1.1.2.1.3 0 .1.1.2.1.3v.3c0 .2 0 .4-.1.6-.1.2-.2.4-.3.5-.1.1-.3.2-.5.3-.2.1-.4.1-.6.1zM77 52c-.8 0-1.5-.7-1.5-1.5v-1c0-.8.7-1.5 1.5-1.5s1.5.7 1.5 1.5v1c0 .8-.7 1.5-1.5 1.5zM89 52c-.8 0-1.5-.7-1.5-1.5v-1c0-.8.7-1.5 1.5-1.5s1.5.7 1.5 1.5v1c0 .8-.7 1.5-1.5 1.5zM83 51.5c-.4 0-.8-.2-1.1-.4-.3-.3-.4-.7-.4-1.1v-.3c0-.1 0-.2.1-.3 0-.1.1-.2.1-.3.1-.1.1-.2.2-.2.4-.4.9-.5 1.4-.4.1 0 .2 0 .3.1.1 0 .2.1.3.1.1.1.2.1.2.2.3.3.4.7.4 1.1 0 .4-.2.8-.4 1.1-.1.1-.3.2-.5.3-.2.1-.4.1-.6.1zM95 51.5c-.4 0-.8-.2-1.1-.4-.1-.1-.2-.3-.3-.5-.1-.2-.1-.4-.1-.6 0-.4.2-.8.4-1.1.6-.6 1.6-.6 2.1 0 .3.3.4.7.4 1.1 0 .2 0 .4-.1.6-.1.2-.2.4-.3.5-.2.2-.6.4-1 .4z"/><text y="115" font-size="5" font-weight="bold" font-family="'Helvetica Neue', Helvetica, Arial-Unicode, Arial, Sans-serif">Created by Indygo</text><text y="120" font-size="5" font-weight="bold" font-family="'Helvetica Neue', Helvetica, Arial-Unicode, Arial, Sans-serif">from the Noun Project</text></svg>